<?xml version="1.0" encoding="utf-8"?>
<!-- Generator: Adobe Illustrator 25.0.0, SVG Export Plug-In . SVG Version: 6.00 Build 0)  -->
<svg version="1.1" id="Capa_1" xmlns="http://www.w3.org/2000/svg" xmlns:xlink="http://www.w3.org/1999/xlink" x="0px" y="0px"
	 viewBox="0 0 79.2 102.3" style="enable-background:new 0 0 79.2 102.3;" xml:space="preserve">
<style type="text/css">
@font-face{
    font-family: "AgencyFB";
    src: url(../font/AGENCYR.TTF)
}
	.st0{font-family:'AgencyFB';}
	.st1{font-size:30px;}
</style>
<g id="Home" transform="translate(-919 -25.828)">
	<g id="Home_Icon" transform="translate(918.999 20.22)">
		<path id="Path_18_1_" d="M78.4,47.4L60,27V13.5c0.2-1.5-0.8-2.8-2.3-3s-2.9,0.8-3.1,2.3c0,0.3,0,0.5,0,0.8V21l-13-14.3
			c-0.9-1-2.4-1.2-3.5-0.4c-0.1,0.1-0.3,0.2-0.4,0.4L0.8,47.4c-1.1,1.2-1.1,3,0,4.3c0.9,1,2.4,1.2,3.5,0.4c0.1-0.1,0.3-0.2,0.4-0.4
			L39.6,13l34.9,38.8c0.4,0.6,1.2,0.8,2,0.8c0.7,0,1.4-0.4,2-0.8C79.5,50.5,79.5,48.7,78.4,47.4z"/>
		<path id="Path_19_1_" d="M71.2,50.9L41.7,18.6c-0.9-1-2.5-1.2-3.6-0.3c-0.1,0.1-0.2,0.2-0.4,0.3L8.2,50.9
			c-0.4,0.5-0.6,0.9-0.8,1.6c-0.1,0.5-0.1,0.9-0.1,1.4v15.8c0,4.1,3,7.4,6.7,7.4h14.4c2,0,3.8-0.9,4.9-2.4s1.8-3.2,1.8-5V58.1
			c-0.1-2.6,1.8-5,4.5-5.4c2.7,0.5,4.7,2.7,4.5,5.4v11.5c0,1.8,0.6,3.6,1.8,5c1.2,1.5,3,2.4,4.9,2.4h14.4c3.8,0,6.7-3.3,6.7-7.4
			V53.9c0-0.5,0-0.9-0.1-1.4C72,51.9,71.7,51.4,71.2,50.9z"/>
	</g>
</g>
<text transform="matrix(1 0 0 1 12.947 96.2402)" class="st0 st1">Home</text>
</svg>
