<?xml version="1.0" encoding="utf-8"?>
<!-- Generator: Adobe Illustrator 25.0.0, SVG Export Plug-In . SVG Version: 6.00 Build 0)  -->
<svg version="1.1" id="Capa_1" xmlns="http://www.w3.org/2000/svg" xmlns:xlink="http://www.w3.org/1999/xlink" x="0px" y="0px"
	 viewBox="0 0 84.3 102.3" style="enable-background:new 0 0 84.3 102.3;" xml:space="preserve">
<style type="text/css">
@font-face{
    font-family: "AgencyFB";
    src: url(../font/AGENCYR.TTF)
}
	.st0{font-family:'AgencyFB';}
	.st1{font-size:30px;}
</style>
<g id="Login_Icon_2_" transform="translate(-10 -2)">
	<path id="Path_12_2_" d="M41.8,73.4h-3.1c-0.6,0-1-0.4-1-1s0.4-1,1-1h3.1c0.6,0,1,0.4,1,1S42.4,73.4,41.8,73.4z"/>
	<path id="Path_13_2_" d="M77.1,73.4H59.6c-0.6,0-1-0.4-1-1s0.4-1,1-1h17.5c1.3,0,2.3-1,2.3-2.2v-31c0-1.2-1-2.2-2.3-2.2H29.2
		c-1.3,0-2.3,1-2.3,2.2v31c0,1.2,1,2.2,2.3,2.2h2.2c0.6,0,1,0.4,1,1s-0.4,1-1,1h-2.2c-2.5,0-4.4-2-4.4-4.3v-31
		c0-2.3,1.9-4.3,4.4-4.3h47.9c2.4,0,4.4,1.9,4.4,4.3v31C81.4,71.4,79.5,73.4,77.1,73.4L77.1,73.4z"/>
	<path id="Path_14_2_" d="M52.2,73.4h-3.1c-0.6,0-1-0.4-1-1s0.4-1,1-1h3.1c0.6,0,1,0.4,1,1S52.8,73.4,52.2,73.4L52.2,73.4z"/>
	<path id="Path_15_2_" d="M72.9,35.9H33.4c-0.6,0-1-0.4-1-1V22.2C32.3,11,41.7,2,53.1,2S74,11,74,22.2l0,0v12.6
		C74,35.3,73.4,35.8,72.9,35.9z M34.4,33.8h37.5V22.2c0-10-8.4-18.2-18.7-18.2s-18.7,8.2-18.7,18.2V33.8z"/>
	<path id="Path_16_2_" d="M66.1,35.9H40.2c-0.6,0-1-0.4-1-1l0,0V22.3c0-7.5,6.3-13.5,14-13.5s14,6.1,14,13.5v12.4
		C67.1,35.3,66.6,35.8,66.1,35.9z M41.2,33.8H65V22.3c0-6.4-5.3-11.5-11.9-11.5S41.3,16,41.3,22.3L41.2,33.8z"/>
	<path id="Path_17_2_" d="M57.6,61.9h-9c-0.6,0-1-0.4-1-1c0-0.1,0-0.2,0.1-0.3l1.3-4.3c-1.1-1.1-1.7-2.5-1.7-4.1
		c0-3.2,2.7-5.8,6-5.8s6,2.6,6,5.8c0,1.5-0.6,3-1.7,4.1l1.3,4.3c0.1,0.6-0.1,1.1-0.7,1.2C57.8,61.8,57.7,61.9,57.6,61.9L57.6,61.9z
		 M50,59.8h6.2l-1-3.6c-0.1-0.4,0-0.8,0.4-1.1c1.7-1.3,1.9-3.6,0.7-5.3c-1.3-1.7-3.7-1.9-5.4-0.7c-1.7,1.3-1.9,3.6-0.7,5.3
		c0.2,0.2,0.4,0.4,0.7,0.7c0.4,0.3,0.4,0.7,0.4,1.1L50,59.8z"/>
</g>
<text transform="matrix(1 0 0 1 17.4161 96.0622)" class="st0 st1">Login</text>
</svg>
