<?xml version="1.0" encoding="utf-8"?>
<!-- Generator: Adobe Illustrator 25.0.0, SVG Export Plug-In . SVG Version: 6.00 Build 0)  -->
<svg version="1.1" id="Capa_1" xmlns="http://www.w3.org/2000/svg" xmlns:xlink="http://www.w3.org/1999/xlink" x="0px" y="0px"
	 viewBox="0 0 84.3 102.3" style="enable-background:new 0 0 84.3 102.3;" xml:space="preserve">
<style type="text/css">
@font-face{
    font-family: "AgencyFB";
    src: url(../font/AGENCYR.TTF)
}
	.st0{font-family:'AgencyFB';}
	.st1{font-size:16px;}
</style>
<g id="wifi" transform="translate(0 -59.725)">
	<g id="Group_11" transform="translate(0 59.725)">
		<path id="Path_24" d="M17.6,28.7c-1.5,1.5-1.5,4,0,5.5s4,1.5,5.5,0l0,0c10.5-10.5,27.6-10.5,38.1,0c1.5,1.5,4,1.5,5.5,0
			s1.5-4,0-5.5C53.1,15.1,31.2,15.1,17.6,28.7z"/>
		<path id="Path_25" d="M28.1,41.8c-1.5,1.5-1.5,4,0,5.5s4,1.5,5.5,0l0,0c4.7-4.7,12.3-4.7,17,0l0,0c1.5,1.5,4,1.5,5.5,0
			s1.5-4,0-5.5C48.4,34.1,35.9,34.1,28.1,41.8L28.1,41.8z"/>
		<circle id="Ellipse_1" cx="42.1" cy="58.4" r="5.2"/>
		<path id="Path_26" d="M77.4,14.6c-19.5-19.4-51-19.4-70.5,0c-1.5,1.5-1.5,4,0,5.5s4,1.5,5.5,0c16.4-16.4,43.1-16.4,59.5,0
			c1.5,1.5,4,1.5,5.5,0S78.9,16.1,77.4,14.6L77.4,14.6z"/>
	</g>
</g>
<text transform="matrix(1 0 0 1 16.9355 79.8967)"><tspan x="0" y="0" class="st0 st1">Corendon</tspan><tspan x="0" y="19.2" class="st0 st1">Free Wi-Fi</tspan></text>
</svg>
